<?xml version="1.0" encoding="utf-8"?>
<!-- Generator: Adobe Illustrator 24.2.3, SVG Export Plug-In . SVG Version: 6.00 Build 0)  -->
<svg version="1.1" id="Layer_1" xmlns="http://www.w3.org/2000/svg" xmlns:xlink="http://www.w3.org/1999/xlink" x="0px" y="0px"
	 viewBox="0 0 246.75 87.4" style="enable-background:new 0 0 246.75 87.4;" xml:space="preserve">
<style type="text/css">
	.st0{fill:#010101;}
	.st1{fill:url(#SVGID_1_);}
	.st2{fill:url(#SVGID_2_);}
	.st3{fill:none;}
	.st4{fill:url(#SVGID_3_);}
	.st5{fill:#FFFFFF;}
	.st6{fill:#333333;}
</style>
<g>
	<g>
		<g>
			<g>
				<path class="st0" d="M53.37,45.29c-1.02,6.31-3.66,11.19-7.73,14.85s-8.95,5.49-14.65,5.49c-2.03,0-3.87-0.2-5.7-0.81
					c-1.83-0.61-3.66-1.22-5.29-2.24c-3.46-2.24-6.31-4.88-8.34-8.55c-2.03-3.46-2.85-7.32-2.85-11.39c0-3.05,0.61-5.9,1.63-8.75
					c1.22-2.85,2.85-5.29,4.88-7.53c2.03-2.24,4.48-3.87,7.32-5.09c2.64-1.22,5.49-1.63,8.55-1.63c4.48,0,8.55,1.22,12,3.46
					c3.46,2.44,6.31,5.7,8.55,10.38L22.86,49.56l-3.26-5.9l21.36-12c-1.22-1.42-2.85-2.64-4.48-3.26c-1.63-0.61-3.46-1.02-5.49-1.02
					c-3.87,0-7.32,1.42-9.97,4.48c-2.64,3.05-4.07,6.51-4.07,10.99c0,4.27,1.42,7.93,4.07,10.99s6.1,4.48,9.97,4.48
					c3.66,0,6.92-1.22,9.36-3.66c2.44-2.44,4.07-5.9,4.68-10.17L53.37,45.29z"/>
			</g>
			<g>
				
					<linearGradient id="SVGID_1_" gradientUnits="userSpaceOnUse" x1="8.8168" y1="693.1785" x2="53.3744" y2="693.1785" gradientTransform="matrix(1 0 0 1 0 -650.5354)">
					<stop  offset="0" style="stop-color:#A6CE39"/>
					<stop  offset="0.1632" style="stop-color:#9DCB3B"/>
					<stop  offset="0.4216" style="stop-color:#86C440"/>
					<stop  offset="0.741" style="stop-color:#62B446"/>
					<stop  offset="0.9944" style="stop-color:#42A652"/>
				</linearGradient>
				<path class="st1" d="M53.37,45.29c-1.02,6.31-3.66,11.19-7.73,14.85s-8.95,5.49-14.65,5.49c-2.03,0-3.87-0.2-5.7-0.81
					c-1.83-0.61-3.66-1.22-5.29-2.24c-3.46-2.24-6.31-4.88-8.34-8.55c-2.03-3.46-2.85-7.32-2.85-11.39c0-3.05,0.61-5.9,1.63-8.75
					c1.22-2.85,2.85-5.29,4.88-7.53c2.03-2.24,4.48-3.87,7.32-5.09c2.64-1.22,5.49-1.63,8.55-1.63c4.48,0,8.55,1.22,12,3.46
					c3.46,2.44,6.31,5.7,8.55,10.38L22.86,49.56l-3.26-5.9l21.36-12c-1.22-1.42-2.85-2.64-4.48-3.26c-1.63-0.61-3.46-1.02-5.49-1.02
					c-3.87,0-7.32,1.42-9.97,4.48c-2.64,3.05-4.07,6.51-4.07,10.99c0,4.27,1.42,7.93,4.07,10.99s6.1,4.48,9.97,4.48
					c3.66,0,6.92-1.22,9.36-3.66c2.44-2.44,4.07-5.9,4.68-10.17L53.37,45.29z"/>
			</g>
		</g>
		
			<linearGradient id="SVGID_2_" gradientUnits="userSpaceOnUse" x1="56.9085" y1="692.4664" x2="66.1124" y2="692.4664" gradientTransform="matrix(1 0 0 1 0 -650.5354)">
			<stop  offset="0" style="stop-color:#7FBF42"/>
			<stop  offset="0.9944" style="stop-color:#42A652"/>
		</linearGradient>
		<rect x="56.83" y="39.18" class="st2" width="9.16" height="5.49"/>
		<g>
			<path class="st3" d="M202.31,62.99c1.22,0,1.22,0,1.02-1.63c-0.2-0.41-0.2-0.81-0.41-1.22l-0.41,2.44
				C202.51,62.79,202.51,62.79,202.31,62.99z"/>
			<path class="st3" d="M189.49,64.01c-0.61,0-1.02,0.41-1.02,1.02c0,0.61,0.41,1.02,1.02,1.02s1.02-0.41,1.02-1.02
				C190.51,64.62,190.1,64.01,189.49,64.01z"/>
			<path class="st3" d="M198.85,56.48c0.41,0.2,0.81,0.41,1.22,0.61C199.66,56.89,199.25,56.68,198.85,56.48z"/>
			<path class="st3" d="M190.91,59.73c-0.41,0.81-0.81,1.63-0.81,2.64c0,0.61,0,0.61,0.61,0.61c1.02,0,2.03,0,3.05,0
				C192.34,62.38,191.32,61.36,190.91,59.73z"/>
			<path class="st3" d="M203.93,64.01c-0.61,0-1.02,0.41-1.02,1.02c0,0.61,0.41,1.02,1.02,1.02s1.02-0.41,1.02-1.02
				C204.95,64.62,204.54,64.01,203.93,64.01z"/>
			
				<linearGradient id="SVGID_3_" gradientUnits="userSpaceOnUse" x1="183.4489" y1="722.0697" x2="210.2477" y2="722.0697" gradientTransform="matrix(1 0 0 1 0 -650.5354)">
				<stop  offset="0" style="stop-color:#7FBF42"/>
				<stop  offset="0.9944" style="stop-color:#42A652"/>
			</linearGradient>
			<path class="st4" d="M210.24,86.79c0-0.41-1.42-15.87-2.24-23.19c0-0.41-0.2-0.41-0.61-0.41c-0.81,0-1.63,0-2.64,0
				c-0.41,0-0.61-0.2-0.61-0.61c-0.2-1.22-0.61-2.44-1.22-3.46l-0.2,1.22c0.2,0.41,0.41,0.81,0.41,1.22
				c0.41,1.42,0.41,1.63-1.02,1.63c-0.2,0.41-0.61,0.81-1.83,0.81h-2.24c-1.83,0-3.26-0.2-4.48-0.81c-1.02,0-2.03,0-3.05,0
				c-0.61,0-0.61-0.2-0.61-0.61c0-0.81,0.41-1.83,0.81-2.64c1.02-2.03,3.05-3.26,5.29-3.46c1.02,0,1.83,0,2.64,0.41
				c0.41,0.2,0.81,0.41,1.22,0.61c0.41,0,0.61,0,1.02,0h0.41c-1.02-0.81-2.24-1.42-3.46-1.63c-0.41,0-0.81-0.2-1.22-0.2
				c-2.64,0-4.88,1.22-6.31,3.26c-0.81,1.02-1.22,2.44-1.42,3.87c0,0.41-0.2,0.41-0.61,0.41c-0.81,0-1.63,0-2.44,0
				c-0.41,0-0.61,0.2-0.61,0.61c-0.41,3.87-1.83,19.13-2.03,22.79c0,0.61,0.2,0.81,0.81,0.81c4.27,0,23.19,0,25.64,0
				C210.04,87.2,210.24,87,210.24,86.79z M189.49,66.04c-0.61,0-1.02-0.41-1.02-1.02c0-0.61,0.41-1.02,1.02-1.02
				s1.02,0.41,1.02,1.02C190.51,65.63,190.1,66.04,189.49,66.04z M203.93,66.04c-0.61,0-1.02-0.41-1.02-1.02
				c0-0.61,0.41-1.02,1.02-1.02s1.02,0.41,1.02,1.02C204.95,65.63,204.54,66.04,203.93,66.04z"/>
			<g>
				<g>
					<path class="st0" d="M204.34,76.21c-0.41,2.03-1.22,3.66-2.44,4.88c-1.22,1.22-2.85,1.83-4.88,1.83c-0.61,0-1.22,0-1.83-0.2
						s-1.22-0.41-1.83-0.81c-1.22-0.81-2.03-1.63-2.64-2.85s-1.02-2.44-1.02-3.87c0-1.02,0.2-2.03,0.61-2.85
						c0.41-0.81,0.81-1.83,1.63-2.44c0.61-0.81,1.42-1.22,2.44-1.63c0.81-0.41,1.83-0.61,2.85-0.61c1.42,0,2.85,0.41,3.87,1.22
						c1.22,0.81,2.03,1.83,2.85,3.46l-9.56,5.29l-1.02-2.03l7.12-3.87c-0.41-0.41-1.02-0.81-1.42-1.02
						c-0.61-0.2-1.22-0.41-1.83-0.41c-1.22,0-2.44,0.41-3.26,1.42s-1.42,2.24-1.42,3.66c0,1.42,0.41,2.64,1.42,3.66
						c0.81,1.02,2.03,1.42,3.26,1.42c1.22,0,2.24-0.41,3.05-1.22c0.81-0.81,1.42-2.03,1.63-3.46L204.34,76.21z"/>
				</g>
				<g>
					<path class="st5" d="M204.34,76.21c-0.41,2.03-1.22,3.66-2.44,4.88c-1.22,1.22-2.85,1.83-4.88,1.83c-0.61,0-1.22,0-1.83-0.2
						s-1.22-0.41-1.83-0.81c-1.22-0.81-2.03-1.63-2.64-2.85s-1.02-2.44-1.02-3.87c0-1.02,0.2-2.03,0.61-2.85
						c0.41-0.81,0.81-1.83,1.63-2.44c0.61-0.81,1.42-1.22,2.44-1.63c0.81-0.41,1.83-0.61,2.85-0.61c1.42,0,2.85,0.41,3.87,1.22
						c1.22,0.81,2.03,1.83,2.85,3.46l-9.56,5.29l-1.02-2.03l7.12-3.87c-0.41-0.41-1.02-0.81-1.42-1.02
						c-0.61-0.2-1.22-0.41-1.83-0.41c-1.22,0-2.44,0.41-3.26,1.42s-1.42,2.24-1.42,3.66c0,1.42,0.41,2.64,1.42,3.66
						c0.81,1.02,2.03,1.42,3.26,1.42c1.22,0,2.24-0.41,3.05-1.22c0.81-0.81,1.42-2.03,1.63-3.46L204.34,76.21z"/>
				</g>
			</g>
			<g>
				<path class="st6" d="M196.81,55.46c0.41,0,0.81,0,1.22,0.2c-0.2-0.61-0.2-1.42,0-2.24l0.2-1.42l7.53-43.13
					c0.2-0.81-0.2-1.22-1.02-1.22h-4.88c-0.81,0-1.22,0.61-1.42,1.22l-7.93,44.96c-0.41,2.03-0.41,3.66,0,4.88
					C191.93,56.68,194.17,55.46,196.81,55.46z"/>
				<path class="st6" d="M202.31,57.29h-0.81h-0.41c-0.41,0-0.81,0-1.02,0c-0.61,0-1.02-0.2-1.22-0.61
					c-0.81-0.2-1.63-0.41-2.64-0.41c-2.24,0.2-4.27,1.63-5.29,3.46c0.61,1.42,1.42,2.64,2.85,3.26c1.22,0.61,2.85,0.81,4.48,0.81
					h2.24c1.42,0,1.83-0.41,1.83-0.81c0-0.2,0-0.2,0-0.41l0.41-2.44l0.2-1.22v-0.41C203.32,57.9,203.32,57.29,202.31,57.29z"/>
			</g>
			<path class="st6" d="M109.33,23.92c2.24-1.63,4.88-2.44,7.53-2.44c6.1,0,9.77,4.88,8.55,11.8l-0.2,1.22l0,0l-4.88,28.08
				c-0.2,0.81-0.81,1.22-1.22,1.22h-5.09c-0.61,0-1.02-0.41-0.81-1.22l5.09-29.5c0.41-2.64-1.02-5.29-4.07-5.29
				c-3.05,0-5.7,2.85-6.31,5.9l0,0l-5.09,28.69c-0.2,0.81-0.61,1.42-1.63,1.42h-4.68c-0.81,0-1.22-0.41-1.02-1.22l9.36-53.92
				c0.2-0.81,0.61-1.22,1.42-1.22h4.88c0.81,0,1.02,0.41,1.02,1.22L109.33,23.92z"/>
			<path class="st6" d="M127.84,53.22l3.66-20.14c1.22-6.31,7.53-11.39,14.45-11.39c6.92,0,11.8,4.88,10.58,11.39l-3.66,20.14
				c-1.22,6.71-7.53,11.39-14.45,11.39C131.5,64.62,126.82,59.73,127.84,53.22z M135.37,52.82c-0.41,2.64,1.22,5.09,4.27,5.09
				c3.05,0,5.7-2.44,6.1-5.09l3.46-19.94c0.41-2.85-1.22-5.29-4.27-5.29s-5.7,2.44-6.1,5.09L135.37,52.82z"/>
			<path class="st6" d="M170.36,25.35c2.44-2.24,5.49-3.66,8.95-3.66c6.31,0,9.97,5.29,8.75,11.6l-3.46,19.94
				c-1.02,6.1-6.1,11.6-12.82,11.6c-2.64,0-4.68-1.02-6.51-2.44l-2.44,13.84c-0.2,0.81-0.61,1.22-1.42,1.22h-4.88
				c-0.81,0-1.22-0.41-1.02-1.22l9.16-52.49c0.2-0.81,0.61-1.22,1.42-1.22h3.26c0.81,0,1.22,0.41,1.22,1.42L170.36,25.35z
				 M177.08,52.82l3.46-19.94c0.41-2.64-1.22-5.09-4.27-5.09s-5.49,2.44-6.1,5.09l-3.46,19.94c-0.41,2.64,1.22,5.09,4.27,5.09
				C174.03,58.31,176.67,55.66,177.08,52.82z"/>
			<path class="st6" d="M210.04,48.34l4.48-24.82c0.2-0.81,0.81-1.22,1.22-1.22h5.09c0.61,0,1.02,0.41,0.81,1.22l-4.68,26.86
				c-0.41,2.85,1.02,5.29,4.27,5.29c2.85,0,5.7-2.64,6.31-5.7l4.68-26.25c0.2-1.02,1.22-1.63,1.63-1.63h4.88
				c0.61,0,1.02,0.41,0.81,1.22l-6.92,39.27c-1.42,8.75-7.53,14.04-15.26,14.04c-4.48,0-8.14-1.42-9.97-3.46
				c-0.41-0.41-0.41-1.22,0-1.83l2.03-3.26c0.2-0.41,0.61-0.41,0.81-0.41c0.41,0,0.61,0.2,0.81,0.41c1.22,1.22,3.87,2.44,6.31,2.44
				c3.46,0,6.71-2.03,7.73-6.92l0.81-4.27c-2.24,1.42-4.88,2.44-7.12,2.44c-6.51,0-9.97-4.88-8.75-11.8V48.34z"/>
			<path class="st3" d="M202.31,62.99c1.22,0,1.22,0,1.02-1.63c-0.2-0.41-0.2-0.81-0.41-1.22l-0.41,2.44
				C202.51,62.79,202.51,62.79,202.31,62.99z"/>
			<path class="st3" d="M189.49,64.01c-0.61,0-1.02,0.41-1.02,1.02c0,0.61,0.41,1.02,1.02,1.02s1.02-0.41,1.02-1.02
				C190.51,64.62,190.1,64.01,189.49,64.01z"/>
			<path class="st3" d="M198.85,56.48c0.41,0.2,0.81,0.41,1.22,0.61C199.66,56.89,199.25,56.68,198.85,56.48z"/>
			<path class="st3" d="M190.91,59.73c-0.41,0.81-0.81,1.63-0.81,2.64c0,0.61,0,0.61,0.61,0.61c1.02,0,2.03,0,3.05,0
				C192.34,62.38,191.32,61.36,190.91,59.73z"/>
			<path class="st3" d="M203.93,64.01c-0.61,0-1.02,0.41-1.02,1.02c0,0.61,0.41,1.02,1.02,1.02s1.02-0.41,1.02-1.02
				C204.95,64.62,204.54,64.01,203.93,64.01z"/>
			<g>
				<path class="st6" d="M83.08,32.47c6.51,6.31,11.39,9.77,9.56,19.53c-1.22,6.92-7.73,13.02-15.87,13.02
					c-7.93,0-12.61-5.7-11.19-13.63l0.41-2.03c0.2-1.02,0.41-1.63,1.42-1.63h4.68c0.81,0,1.02,0.41,0.81,1.42l-0.41,1.83
					c-0.81,5.29,2.44,7.12,5.09,7.12c3.46,0,6.92-2.64,7.53-6.51c1.02-5.09-1.02-7.12-6.31-12.21c-5.9-5.7-9.77-8.75-8.34-17.29
					C72.3,11.31,81.45,8.26,85.93,8.26c7.73,0,12.21,5.7,10.78,13.43l-0.41,2.44c-0.2,1.02-0.61,1.42-1.63,1.42H90
					c-0.81,0-1.02-0.41-0.81-1.42l0.41-2.24c0.61-3.46-0.81-6.71-4.88-6.71c-2.44,0-6.51,1.63-7.53,7.12
					C76.77,27.38,80.03,29.83,83.08,32.47z"/>
			</g>
		</g>
	</g>
	<g>
		<path class="st0" d="M67.21,72.76c-0.2,1.42-0.81,2.44-1.63,3.26c-0.81,0.81-1.83,1.22-3.05,1.22c-1.22,0-2.03-0.41-2.64-1.22
			c-0.61-0.81-0.81-1.83-0.61-3.26l0.2-1.63c0.2-1.42,0.81-2.44,1.63-3.26c0.81-0.81,1.83-1.22,3.05-1.22
			c1.22,0,2.03,0.41,2.64,1.22s0.81,1.83,0.61,3.26L67.21,72.76z M66.6,70.92c0.2-1.22,0-2.03-0.41-2.64
			c-0.41-0.61-1.22-1.02-2.24-1.02s-1.83,0.41-2.44,1.02c-0.61,0.61-1.02,1.63-1.22,2.64l-0.2,1.63c-0.2,1.22,0,2.03,0.41,2.85
			c0.41,0.61,1.22,1.02,2.24,1.02c1.02,0,1.83-0.41,2.44-1.02c0.61-0.61,1.02-1.63,1.22-2.64L66.6,70.92z"/>
		<path class="st0" d="M70.46,70.72c0.41-0.41,0.61-0.81,1.22-1.02c0.41-0.2,1.02-0.41,1.63-0.41c0.81,0,1.42,0.2,1.83,0.81
			c0.41,0.61,0.41,1.22,0.41,2.44l-0.61,4.68h-0.81l0.61-4.68c0.2-1.02,0-1.63-0.2-1.83c-0.2-0.2-0.81-0.61-1.42-0.61
			c-0.61,0-1.02,0-1.42,0.41c-0.41,0.41-0.81,0.81-1.02,1.22l-1.22,5.49h-0.81l1.22-7.73h0.81L70.46,70.72z"/>
		<path class="st0" d="M79.62,77.03c-1.02,0-1.63-0.41-2.24-1.02c-0.61-0.61-0.81-1.63-0.61-2.64v-0.41
			c0.2-1.22,0.61-2.03,1.42-2.85c0.81-0.61,1.63-1.02,2.44-1.02s1.63,0.2,2.03,0.81c0.41,0.61,0.61,1.42,0.41,2.44v0.61h-5.29v0.2
			c-0.2,0.81,0,1.63,0.41,2.24c0.41,0.61,1.02,0.81,1.63,0.81c0.41,0,0.81,0,1.22-0.2c0.41-0.2,0.81-0.41,1.02-0.61l0.2,0.61
			c-0.41,0.2-0.61,0.61-1.22,0.61C80.84,77.03,80.23,77.03,79.62,77.03z M80.64,69.91c-0.61,0-1.22,0.2-1.63,0.81
			c-0.41,0.61-0.81,1.02-1.02,1.83l0,0h4.48v-0.2c0.2-0.61,0-1.22-0.2-1.63C81.86,70.11,81.25,69.91,80.64,69.91z"/>
		<path class="st0" d="M94.27,74.79c0-0.61,0-1.02-0.41-1.42s-1.02-0.81-2.03-1.02c-1.02-0.41-1.83-0.81-2.44-1.22
			c-0.41-0.41-0.61-1.22-0.61-2.03c0.2-0.81,0.41-1.42,1.22-1.83c0.61-0.41,1.42-0.61,2.24-0.61c1.02,0,1.83,0.2,2.44,0.81
			c0.61,0.61,0.81,1.22,0.61,2.24l0,0h-0.81c0.2-0.81,0-1.22-0.41-1.83c-0.41-0.41-1.02-0.61-1.83-0.61c-0.61,0-1.22,0.2-1.63,0.41
			c-0.41,0.41-0.81,0.81-0.81,1.22c0,0.61,0,1.22,0.41,1.42c0.41,0.41,1.02,0.61,2.03,1.02s1.83,0.81,2.44,1.22
			c0.61,0.41,0.61,1.22,0.61,2.03c-0.2,0.81-0.61,1.42-1.22,1.83c-0.61,0.41-1.42,0.61-2.44,0.61s-1.83-0.2-2.64-0.81
			s-1.02-1.22-0.81-2.24l0,0h0.81c-0.2,0.81,0,1.42,0.61,1.83c0.61,0.41,1.22,0.61,2.03,0.61c0.61,0,1.22-0.2,1.83-0.41
			C94.07,75.81,94.27,75.2,94.27,74.79z"/>
		<path class="st0" d="M99.36,67.47l-0.2,2.03h1.63v0.61h-1.63l-0.81,5.09c0,0.61,0,0.81,0.2,1.02c0.2,0.2,0.41,0.2,0.61,0.2
			c0,0,0.2,0,0.41,0s0.2,0,0.41,0v0.61c-0.2,0-0.2,0.2-0.41,0.2c-0.2,0-0.41,0-0.41,0c-0.61,0-0.81-0.2-1.22-0.61
			c-0.2-0.41-0.41-0.81-0.2-1.63l0.81-5.09h-1.42V69.3h1.42l0.2-2.03h0.61V67.47z"/>
		<path class="st0" d="M101.39,72.96c0.2-1.22,0.61-2.03,1.42-2.85c0.81-0.61,1.63-1.02,2.64-1.02s1.83,0.41,2.24,1.02
			c0.61,0.81,0.81,1.63,0.61,2.85v0.2c-0.2,1.22-0.61,2.03-1.42,2.85c-0.81,0.61-1.63,1.02-2.64,1.02s-1.83-0.41-2.24-1.02
			C101.59,75.6,101.19,74.59,101.39,72.96L101.39,72.96z M102.2,73.16c-0.2,1.02,0,1.63,0.41,2.24c0.41,0.61,1.02,0.81,1.83,0.81
			c0.81,0,1.42-0.41,2.03-1.02c0.61-0.61,0.81-1.42,1.02-2.24v-0.2c0.2-0.81,0-1.63-0.41-2.24c-0.41-0.61-1.02-0.81-1.83-0.81
			c-0.81,0-1.42,0.41-2.03,1.02C102.61,71.53,102.41,72.35,102.2,73.16L102.2,73.16z"/>
		<path class="st0" d="M116.04,73.57c-0.2,1.22-0.61,2.03-1.22,2.85c-0.61,0.61-1.42,1.02-2.24,1.02c-0.61,0-1.02-0.2-1.42-0.41
			c-0.41-0.2-0.61-0.61-0.81-0.81l-0.61,4.07h-0.81l1.63-10.58h0.61v1.22c0.41-0.41,0.61-0.81,1.22-1.02
			c0.41-0.2,1.02-0.41,1.42-0.41c0.81,0,1.63,0.41,2.03,1.02C116.24,71.13,116.24,71.94,116.04,73.57L116.04,73.57z M115.23,73.16
			c0.2-1.02,0-1.83-0.2-2.44c-0.2-0.61-0.81-0.81-1.63-0.81c-0.61,0-1.02,0.2-1.42,0.41c-0.41,0.2-0.81,0.61-1.02,1.02l-0.61,3.66
			c0.2,0.41,0.41,0.81,0.61,1.02c0.41,0.2,0.81,0.41,1.22,0.41c0.81,0,1.22-0.2,1.83-0.81C114.82,74.99,115.02,74.18,115.23,73.16
			L115.23,73.16z"/>
		<path class="st0" d="M127.64,74.79c0-0.61,0-1.02-0.41-1.42s-1.02-0.81-2.03-1.02c-1.02-0.41-1.83-0.81-2.44-1.22
			c-0.41-0.41-0.61-1.22-0.61-2.03c0.2-0.81,0.41-1.42,1.22-1.83c0.61-0.41,1.42-0.61,2.24-0.61c1.02,0,1.83,0.2,2.44,0.81
			c0.61,0.61,0.81,1.22,0.61,2.24l0,0h-0.81c0.2-0.81,0-1.22-0.41-1.83c-0.41-0.41-1.02-0.61-1.83-0.61c-0.61,0-1.22,0.2-1.63,0.41
			c-0.41,0.41-0.81,0.81-0.81,1.22c0,0.61,0,1.22,0.41,1.42c0.41,0.41,1.02,0.61,2.03,1.02c1.02,0.41,1.83,0.81,2.44,1.22
			c0.61,0.41,0.61,1.22,0.61,2.03c-0.2,0.81-0.61,1.42-1.22,1.83c-0.61,0.41-1.42,0.61-2.44,0.61s-1.83-0.2-2.64-0.81
			c-0.81-0.61-1.02-1.22-0.81-2.24l0,0h0.81c-0.2,0.81,0,1.42,0.61,1.83c0.61,0.41,1.22,0.61,2.03,0.61c0.61,0,1.22-0.2,1.83-0.41
			C127.23,75.81,127.64,75.2,127.64,74.79z"/>
		<path class="st0" d="M131.71,70.72c0.41-0.41,0.81-0.81,1.22-1.02c0.41-0.2,1.02-0.41,1.63-0.41c0.81,0,1.42,0.2,1.83,0.81
			c0.41,0.61,0.41,1.02,0.41,2.03l-0.81,4.68h-0.81l0.61-4.68c0.2-0.81,0-1.42-0.2-1.83c-0.2-0.41-0.61-0.61-1.22-0.61
			c-0.61,0-1.02,0.2-1.63,0.41c-0.61,0.2-0.81,0.61-1.02,1.22l-0.81,5.49h-0.81l1.63-11.19h0.81L131.71,70.72z"/>
		<path class="st0" d="M138.01,72.96c0.2-1.22,0.61-2.03,1.42-2.85c0.81-0.61,1.63-1.02,2.64-1.02c1.02,0,1.83,0.41,2.24,1.02
			c0.61,0.81,0.81,1.63,0.61,2.85v0.2c-0.2,1.22-0.61,2.03-1.42,2.85c-0.81,0.61-1.63,1.02-2.64,1.02c-1.02,0-1.83-0.41-2.24-1.02
			C138.22,75.6,137.81,74.59,138.01,72.96L138.01,72.96z M138.83,73.16c-0.2,1.02,0,1.63,0.41,2.24c0.41,0.61,1.02,0.81,1.83,0.81
			c0.81,0,1.42-0.41,2.03-1.02c0.61-0.61,0.81-1.42,1.02-2.24v-0.2c0.2-0.81,0-1.63-0.41-2.24c-0.41-0.61-1.02-0.81-1.83-0.81
			c-0.81,0-1.42,0.41-2.03,1.02C139.23,71.53,139.03,72.35,138.83,73.16L138.83,73.16z"/>
		<path class="st0" d="M152.87,73.57c-0.2,1.22-0.61,2.03-1.22,2.85c-0.61,0.61-1.42,1.02-2.24,1.02c-0.61,0-1.02-0.2-1.42-0.41
			c-0.41-0.2-0.61-0.61-0.81-0.81l-0.61,4.07h-0.81l1.63-10.58h0.61v1.22c0.41-0.41,0.61-0.81,1.22-1.02
			c0.41-0.2,1.02-0.41,1.42-0.41c0.81,0,1.63,0.41,2.03,1.02C152.87,70.92,153.07,71.94,152.87,73.57L152.87,73.57z M152.05,73.16
			c0.2-1.02,0-1.83-0.2-2.44c-0.2-0.61-0.81-0.81-1.63-0.81c-0.61,0-1.02,0.2-1.42,0.41c-0.41,0.2-0.81,0.61-1.02,1.02l-0.61,3.66
			c0.2,0.41,0.41,0.81,0.61,1.02c0.2,0.2,0.81,0.41,1.22,0.41c0.81,0,1.22-0.2,1.83-0.81C151.44,74.99,151.85,74.18,152.05,73.16
			L152.05,73.16z"/>
	</g>
</g>
</svg>
